<?xml version="1.0" standalone="no"?><!DOCTYPE svg PUBLIC "-//W3C//DTD SVG 1.1//EN" "http://www.w3.org/Graphics/SVG/1.1/DTD/svg11.dtd"><svg t="1548055329353" class="icon" style="" viewBox="0 0 1089 1024" version="1.1" xmlns="http://www.w3.org/2000/svg" p-id="99027" xmlns:xlink="http://www.w3.org/1999/xlink" width="34.03125" height="32"><defs><style type="text/css"></style></defs><path d="M507.709057 260.815829m-260.815828 0a260.815829 260.815829 0 1 0 521.631657 0 260.815829 260.815829 0 1 0-521.631657 0Z" fill="#bfbfbf" p-id="99028"></path><path d="M633.471731 763.695935a260.080988 260.080988 0 0 1 123.348198-221.383771 507.827157 507.827157 0 0 0-52.344251-25.732534 290.773694 290.773694 0 0 1-393.664463 0C128.24276 593.462299 0 774.114921 0 984.725409c0 39.274591 227.301861 39.274591 507.709057 39.274591 131.129632 0 250.633041 0 340.729715-4.015378-122.140961-21.454713-214.967041-127.993439-214.967041-256.288687z" fill="#bfbfbf" p-id="99029"></path><path d="M893.815162 568.149675a195.520016 195.520016 0 1 0 195.520017 195.520016 195.520016 195.520016 0 0 0-195.520017-195.520016z m-7.873289 290.07822l-33.579579 33.592701-33.5927-33.592701-78.352351-78.339228 33.592701-33.592701 78.339228 78.35235 161.822339-161.83546 33.5927 33.5927z" fill="#bfbfbf" p-id="99030"></path></svg>