<?xml version="1.0" standalone="no"?><!DOCTYPE svg PUBLIC "-//W3C//DTD SVG 1.1//EN" "http://www.w3.org/Graphics/SVG/1.1/DTD/svg11.dtd"><svg t="1548061765874" class="icon" style="" viewBox="0 0 1024 1024" version="1.1" xmlns="http://www.w3.org/2000/svg" p-id="107324" xmlns:xlink="http://www.w3.org/1999/xlink" width="32" height="32"><defs><style type="text/css"></style></defs><path d="M143.0197430752395 465.10618689738277c16.540316790834563 0 29.840395226074065-13.780947621609876 29.840395226074065-30.74252270048395 0-16.960249471683948-13.30140404242963-30.794186428365432-29.840395226074065-30.794186428365432-0.26229287190123457 0-0.5312086015999999 0.21062914401975305-0.8478138266864198 0.21062914401975305l-71.34088048892839 0.16028972879012346c-1.5923001976098765-0.2649414972049382-3.2879278509827152-0.3709188728098765-4.984879817007408-0.3709188728098765-22.476337890291354 0-40.6526714361679 19.028120310518517-40.6526714361679 42.50858881833086l-0.4265568331851852 509.7877784348443c0 23.4817928204642 18.235944444207405 41.87272844831604 40.76262174972839 41.87272844831604 2.1711982945975308 0 4.343720901846914 0.3709188728098765 6.411591740681481 0l69.699566483279 0.05298804053333333c0.10332745576296296 0 0.1589654161382716 0.05298804053333333 0.2689157296987654 0.05298804053333333 0.1046517684148148 0 0.1589654161382716-0.05298804053333333 0.26229287190123457-0.05298804053333333l0.8478138266864198 0 0-0.15763980894814816c15.318935466034567-0.6371846826666665 27.613560265639503-13.464342396523454 27.613560265639503-29.36482458484938 0-15.954795836049382-12.29462479960494-28.78195354990617-27.613560265639503-29.416488312730863l0-0.4239069133432099-58.14412950945186 0 1.6413140056493825-473.3225136987655L143.0197430752395 465.10618689738277 143.0197430752395 465.10618689738277zM983.7065928703998 421.06093584181735c-21.994144391269135-36.99514902502715-54.00706222459258-51.94316561825185-92.80381627859752-53.58580523109136-2.014882798301234-0.2649414972049382-4.033738534558024-0.4768949538765431-6.150624475970369-0.4768949538765431l-234.53973451915058-0.7948257861530863c15.369274881264197-45.95548079091358 25.916607005076543-100.70703068096789 25.916607005076543-152.1733013453432 0-33.33895222107654-3.6614953490962967-65.83141622265678-10.335379961679013-97.10249760489876l-0.5312086015999999 0.10597608106666666c-12.134335070814814-54.80586224323951-59.100569337046906-95.7261250964543-115.28015416888888-95.7261250964543-65.41015793461729 0-109.03282638949135 56.66177962540245-109.03282638949135 124.8789962246321 0 3.8164865327407402-0.31792953773827154 7.525672671762963 0 11.234857516246914-3.39257961939753 127.52708947310616-104.15259834089878 230.0370494957037-224.04539043587158 244.13460234239997l0 64.55704556278518-0.8968276347259259 261.41543256620247 0 270.3174764518715 12.238986839229629 0 570.9085291153382 0.2649414972049382 9.963136776217283-0.2649414972049382c22.105420312019753 0.05298804053333333 34.55768492057283-5.671079602251851 54.593908786567894-18.975132269985185 19.028120310518517-12.668192297718516 33.390615948958015-29.99936064221234 42.82386843622715-49.61035328221235 2.5434414800592586-3.9237882209975306 4.562298510854321-8.321822770567902 5.831369331041975-13.145087251595063l87.93551092748642-405.1066214121877c1.1657433644246913-4.772926360335803 1.5379865498864194-9.594867823249382 1.1657433644246913-14.312156223209877C1003.2659217825188 471.04220799683947 997.7577818288985 444.59439239016297 983.7065928703998 421.06093584181735zM946.3921887004442 483.2878176938666l-94.71404730848396 432.6671923427555-0.15763980894814816-0.05298804053333333c-2.917008978172839 7.260729880019753-7.846252129343209 13.673647227891356-14.685725015861726 18.180306483832094-4.771602047683949 3.1793018500740744-10.018774736592594 5.088207272770369-15.314961233540739 5.8300450183901225-1.6956276533728396-0.2649414972049382-3.4468932671209873 0-5.24717268890864 0l-544.6660428129975-0.6345360573629629-0.2132777693234568-479.31152283875554c102.0357136940247-47.38616694708148 176.8221618428839-93.70991669096296 215.35132447984196-204.3297460274568 0.05431364772345679 0.05298804053333333 0.16426396128395063 0.05298804053333333 0.2132777693234568 0.10730168825679012 3.4482175797728396-10.759286875022221 7.2103917593283935-24.3812703750321 9.963136776217283-39.01135613598024 6.308264284918518-34.34573146390123 5.990334747180246-68.42652013605927 5.990334747180246-68.42652013605927-5.667105369758023-44.62944769769877 29.57810364871111-62.28119549977283 50.67012056557035-62.28119549977283 28.833617277787653 1.0067792428246913 57.35062803595059 39.594228465461725 57.35062803595059 61.53803344150123 0 0 6.411591740681481 32.43815035385679 6.46722970105679 67.31508912481975 0.05431364772345679 43.93794936730864-5.350500144671604 66.88985789882467-5.350500144671604 66.88985789882467l-0.5298829944098764 0c-6.681831783032099 36.30762492713086-18.499561628760492 70.7606580792889-34.770962689896294 102.29800656592593l0.4199326808493827 0.4239069133432099c-2.7024068961975307 5.618091561718518-4.239069133432099 11.978019574518518-4.239069133432099 18.710190772780244 0 23.48046721327408 21.786165167091355 25.600001779990126 44.25720451223704 25.600001779990126l272.5986263545679 0.319255144928395c0 0 16.748296015012343 0.5285586817580246 16.802609662735804 0.5285586817580246l0 0.10730168825679012c13.836585581985187-0.7418364510814814 27.613560265639503 6.1479745561283945 35.51544906081975 19.346051142795055 6.253951931733333 10.600321458883952 7.31504352774321 23.05656029993086 3.9714777163851838 34.0807899666963L946.3921887004442 483.2878176938666zM228.24489864154083 997.9518512393481c0.37224318546172824 0.05298804053333333 0.4821934990222222 0.05298804053333333 0.32322937742222213 0 0.31792953773827154-0.05298804053333333 0.42125699350123463-0.10597608106666666-0.32322937742222213-0.10597608106666666-0.7378635131259259 0-0.6345360573629629 0.05298804053333333-0.31660522508641975 0.10597608106666666C227.82496596069126 998.0048392798815 227.92829341645432 998.0048392798815 228.24489864154083 997.9518512393481z" fill="#8a8a8a" p-id="107325"></path></svg>