<?xml version="1.0" standalone="no"?><!DOCTYPE svg PUBLIC "-//W3C//DTD SVG 1.1//EN" "http://www.w3.org/Graphics/SVG/1.1/DTD/svg11.dtd"><svg t="1548061834719" class="icon" style="" viewBox="0 0 1024 1024" version="1.1" xmlns="http://www.w3.org/2000/svg" p-id="108541" xmlns:xlink="http://www.w3.org/1999/xlink" width="32" height="32"><defs><style type="text/css"></style></defs><path d="M869.888 164.352c14.848 0 33.28 20.48 33.792 41.984l-3.072 446.464v0.512c0 10.752-3.584 20.48-10.24 27.648-4.096 4.096-10.24 9.216-19.456 9.216l-283.648 0.512c-11.264 0-22.016 3.072-31.744 8.704l-214.528 132.096 11.264-71.68c5.12-32.768-17.408-64-50.688-69.12-3.072-0.512-6.144-0.512-9.216-0.512h-139.776c-2.56 0-9.216 0-16.384-7.68-6.144-7.168-9.728-17.408-9.728-29.184l-1.024-446.464c0-23.04 16.384-42.496 29.696-42.496h714.752m0-60.416h-714.752c-49.664 0-90.112 49.152-90.112 102.912l1.024 446.976c0 53.76 36.352 97.28 86.016 97.28h139.776l-30.72 200.704 326.144-200.192 283.648-0.512c49.664 0 90.112-43.52 90.112-97.28l3.072-446.976c0-53.76-44.544-102.912-94.208-102.912z" fill="#8a8a8a" p-id="108542"></path><path d="M205.312 422.912c0 35.84 29.184 65.024 65.024 65.024s65.024-29.184 65.024-65.024c0-35.84-29.184-65.024-65.024-65.024s-65.024 29.696-65.024 65.024zM449.536 422.912c0 35.84 29.184 65.024 65.024 65.024s65.024-29.184 65.024-65.024c0-35.84-29.184-65.024-65.024-65.024s-65.024 29.696-65.024 65.024zM694.272 422.912c0 35.84 29.184 65.024 65.024 65.024s65.024-29.184 65.024-65.024c0-35.84-29.184-65.024-65.024-65.024s-65.024 29.696-65.024 65.024z" fill="#8a8a8a" p-id="108543"></path></svg>