<?xml version="1.0" standalone="no"?><!DOCTYPE svg PUBLIC "-//W3C//DTD SVG 1.1//EN" "http://www.w3.org/Graphics/SVG/1.1/DTD/svg11.dtd"><svg t="1548051295277" class="icon" style="" viewBox="0 0 1043 1024" version="1.1" xmlns="http://www.w3.org/2000/svg" p-id="94431" xmlns:xlink="http://www.w3.org/1999/xlink" width="48.890625" height="48"><defs><style type="text/css"></style></defs><path d="M957.592747 170.552889C945.285784 170.552889 933.623562 167.822222 923.042228 163.119407 913.674524 172.373333 904.249932 181.532444 894.939117 190.179556 851.931117 230.058667 815.40845 266.183111 815.40845 322.37037L815.40845 587.851852C815.40845 639.260444 788.46208 680.182519 776.003413 696.64237 776.818821 701.383111 777.463562 706.199704 777.463562 711.168 777.463562 758.139259 739.196302 796.330667 692.111265 796.330667 645.045191 796.330667 606.758969 758.139259 606.758969 711.168 606.758969 664.196741 645.045191 625.98637 692.111265 625.98637 710.12608 625.98637 726.813487 631.656296 740.599562 641.194667 749.853487 626.782815 758.519562 608.502519 758.519562 587.851852L758.519562 322.37037C758.519562 238.516148 806.913043 188.207407 854.548006 143.985778 862.89171 136.267852 871.311265 128.075852 879.692895 119.845926 874.971117 109.283556 872.24045 97.659259 872.24045 85.390222 872.24045 38.418963 910.526673 0.208593 957.592747 0.208593 1004.658821 0.208593 1042.945043 38.418963 1042.945043 85.390222 1042.945043 132.361481 1004.658821 170.552889 957.592747 170.552889ZM692.149191 682.647704C676.447858 682.647704 663.704747 695.390815 663.704747 711.111111 663.704747 726.812444 676.447858 739.555556 692.149191 739.555556 707.850524 739.555556 720.593636 726.812444 720.593636 711.111111 720.593636 695.390815 707.850524 682.647704 692.149191 682.647704ZM957.630673 56.888889C941.929339 56.888889 929.186228 69.613037 929.186228 85.333333 929.186228 101.034667 941.929339 113.777778 957.630673 113.777778 973.332006 113.777778 986.075117 101.034667 986.075117 85.333333 986.075117 69.613037 973.332006 56.888889 957.630673 56.888889ZM493.03808 398.222222C566.329932 398.222222 625.96845 457.803852 625.96845 531.038815 625.96845 604.273778 566.329932 663.87437 493.03808 663.87437 419.746228 663.87437 360.10771 604.273778 360.10771 531.038815 360.10771 457.803852 419.746228 398.222222 493.03808 398.222222ZM493.03808 606.90963C534.927265 606.90963 568.984747 572.852148 568.984747 531.000889 568.984747 489.14963 534.927265 455.111111 493.03808 455.111111 451.148895 455.111111 417.07245 489.14963 417.07245 531.000889 417.07245 572.852148 451.148895 606.90963 493.03808 606.90963ZM397.673339 813.056C413.147117 818.991407 420.978821 836.551111 415.157191 852.29037 410.625043 864.502519 399.228302 872.030815 387.129932 872.030815 383.602821 872.030815 380.037784 871.405037 376.567562 870.058667 282.454376 834.048 207.797191 762.88 166.38208 669.714963 125.478969 577.744593 121.83808 474.927407 156.104154 380.22637 161.830969 364.449185 179.049339 356.370963 194.561043 362.17363 210.09171 367.976296 218.037191 385.479111 212.329339 401.275259 183.524599 480.862815 186.596599 567.296 220.97645 644.645926 255.79245 722.944 318.540895 782.772148 397.673339 813.056ZM493.03808 94.795852C252.151562 94.795852 56.889932 290.076444 56.889932 530.962963 56.889932 771.830519 252.151562 967.111111 493.03808 967.111111 733.924599 967.111111 929.186228 771.830519 929.186228 530.962963 929.186228 452.968296 908.45971 379.922963 872.61971 316.586667L911.778228 271.834074C958.749487 347.287704 986.340599 435.977481 986.340599 531.209481 986.340599 803.062519 765.118673 1024.208593 493.170821 1024.208593 221.222969 1024.208593-0.01792 803.062519-0.01792 531.209481-0.01792 259.375407 221.222969 38.21037 493.170821 38.21037 603.459413 38.21037 705.044006 75.017481 787.267413 136.400593L752.565191 181.020444C679.993932 127.089778 590.393932 94.795852 493.03808 94.795852Z" p-id="94432" fill="#ffffff"></path></svg>