<?xml version="1.0" standalone="no"?><!DOCTYPE svg PUBLIC "-//W3C//DTD SVG 1.1//EN" "http://www.w3.org/Graphics/SVG/1.1/DTD/svg11.dtd"><svg t="1548061150456" class="icon" style="" viewBox="0 0 1024 1024" version="1.1" xmlns="http://www.w3.org/2000/svg" p-id="100059" xmlns:xlink="http://www.w3.org/1999/xlink" width="32" height="32"><defs><style type="text/css"></style></defs><path d="M928.244 517.123c-16.792 0-30.381 13.543-30.381 30.262v285.786c-0.124 36.798-30.005 66.549-66.802 66.511H190.293c-36.797 0.038-66.682-29.713-66.802-66.511V233.01c0.12-36.797 30.005-66.549 66.802-66.511H399.15a30.26 30.26 0 0 0 21.459-8.819 30.283 30.283 0 0 0 8.922-21.416 30.3 30.3 0 0 0-8.913-21.414 30.312 30.312 0 0 0-21.447-8.827H190.315c-70.363 0.025-127.542 56.966-127.542 126.986V833.17c0 70.02 57.205 126.961 127.52 126.961h640.793c70.312 0 127.517-56.941 127.517-126.961V547.385a30.286 30.286 0 0 0-30.359-30.262zM291.012 694.288a30.268 30.268 0 0 0 29.902 35.664c14.389 0 27.137-10.2 29.851-24.786 0.24-1.26 24.302-128.414 108.156-254.818 48.801-73.536 107.942-132.052 175.736-173.821 64.741-39.932 137.912-64.768 218.235-74.24l-98.858 101.521a30.151 30.151 0 0 0-8.559 21.523 30.153 30.153 0 0 0 9.238 21.242c5.886 5.695 13.521 8.503 21.13 8.503 7.947 0 15.868-3.052 21.806-9.183l153.054-157.2 0.316-0.363 0.483-0.483 0.487-0.555s0.021-0.074 0.072-0.074c0.321-0.375 0.629-0.765 0.92-1.162l0.436-0.582 0.487-0.681 0.338-0.487c0.106-0.154 0.205-0.316 0.291-0.482l0.119-0.146 0.073-0.146 0.29-0.461 0.462-0.821 0.243-0.436 0.095-0.197 0.342-0.654 0.265-0.53c0.12-0.256 0.231-0.518 0.338-0.778l0.244-0.604 0.316-0.731 0.239-0.727 0.243-0.628 0.244-0.799 0.146-0.629c0.094-0.243 0.145-0.534 0.218-0.825l0.119-0.482 0.026-0.146 0.171-0.778c0-0.166 0.047-0.312 0.072-0.458l0.073-0.368 0.072-0.628c0.03-0.127 0.051-0.255 0.072-0.388l0.073-0.583c0.004-0.11 0.013-0.227 0.021-0.337l0.025-0.316 0.025-0.167 0.047-0.799v-0.146l0.026-0.487 0.021-0.966c0-0.535 0-1.018-0.048-1.505v-0.41a27.28 27.28 0 0 0-0.098-1.043l-0.047-0.291v-0.17c-0.039-0.321-0.077-0.646-0.12-0.967l-0.072-0.388v-0.146l-0.172-0.773c-0.038-0.162-0.068-0.325-0.098-0.487v-0.094a1.948 1.948 0 0 0-0.047-0.172l-0.146-0.581-0.244-0.971-0.098-0.337a30.731 30.731 0 0 0-0.338-1.09l-0.073-0.244-0.243-0.752-0.047-0.074-0.146-0.363a21.108 21.108 0 0 0-0.581-1.381l-0.364-0.821a29.661 29.661 0 0 0-0.944-1.77l-0.727-1.214a0.39 0.39 0 0 1-0.072-0.119l-0.437-0.681-0.025-0.047a2.774 2.774 0 0 1-0.239-0.363l-0.244-0.337-0.192-0.244c-0.072-0.099-0.124-0.193-0.196-0.243-0.047-0.12-0.12-0.192-0.192-0.291l-0.483-0.603-0.27-0.316a19.151 19.151 0 0 1-0.944-1.068l-0.897-0.966a10.214 10.214 0 0 0-1.091-1.018v-0.023a17.36 17.36 0 0 0-1.137-0.971c-0.338-0.282-0.688-0.56-1.043-0.821-0.047 0-0.094-0.073-0.146-0.099a18.167 18.167 0 0 0-1.235-0.872l-0.509-0.337-0.41-0.244a4.536 4.536 0 0 0-0.436-0.244 1.354 1.354 0 0 0-0.39-0.243 6.11 6.11 0 0 1-0.436-0.239l-0.534-0.292-1.355-0.68-0.727-0.316a7.59 7.59 0 0 0-0.68-0.265 48.078 48.078 0 0 0-2.035-0.753l-0.389-0.119-222.902-73.584c-15.885-5.241-33.027 3.334-38.354 19.189-5.283 15.846 3.343 32.954 19.263 38.186l89.646 29.608a577.586 577.586 0 0 0-182.832 72.932c-75.329 46.449-140.771 111.02-194.441 191.894-90.595 136.632-116.18 271.611-117.224 277.283v-0.025z m0 0" fill="#8a8a8a" p-id="100060"></path></svg>