<?xml version="1.0" standalone="no"?><!DOCTYPE svg PUBLIC "-//W3C//DTD SVG 1.1//EN" "http://www.w3.org/Graphics/SVG/1.1/DTD/svg11.dtd"><svg t="1551082642704" class="icon" style="" viewBox="0 0 1024 1024" version="1.1" xmlns="http://www.w3.org/2000/svg" p-id="46322" xmlns:xlink="http://www.w3.org/1999/xlink" width="64" height="64"><defs><style type="text/css"></style></defs><path d="M680.190725 168.129605a34.175936 34.175936 0 0 0 34.495935-33.919937V33.921856a34.239936 34.239936 0 0 0-34.495935-33.919936 34.175936 34.175936 0 0 0-34.495936 33.919936v100.351812a34.175936 34.175936 0 0 0 34.495936 33.855937z" p-id="46323" fill="#3eb4b8"></path><path d="M854.846397 56.513814H765.438565v77.695854c0 46.655913-38.207928 84.607841-85.24784 84.607842a85.055841 85.055841 0 0 1-85.247841-84.607842V56.513814H427.455199v77.695854c0 46.655913-38.271928 84.607841-85.247841 84.607842a85.055841 85.055841 0 0 1-85.24784-84.607842V56.513814H169.151683A169.343682 169.343682 0 0 0 0 225.601497v597.37488a169.343682 169.343682 0 0 0 169.151683 169.151683h685.758714a169.343682 169.343682 0 0 0 169.151683-169.151683V225.601497A169.407682 169.407682 0 0 0 854.846397 56.513814z m101.50381 766.462563c0 55.935895-45.503915 101.50381-101.50381 101.50381H169.151683a101.631809 101.631809 0 0 1-101.50381-101.50381V353.601257h888.702334v469.37512z" p-id="46324" fill="#3eb4b8"></path><path d="M342.207358 168.129605a34.175936 34.175936 0 0 0 34.495936-33.919937V33.921856A34.175936 34.175936 0 0 0 342.207358 0.00192a34.239936 34.239936 0 0 0-34.495935 33.919936v100.351812c0 18.623965 15.487971 33.855937 34.495935 33.855937z" p-id="46325" fill="#3eb4b8"></path><path d="M287.359461 559.87287m-58.43189 0a58.43189 58.43189 0 1 0 116.863781 0 58.43189 58.43189 0 1 0-116.863781 0Z" p-id="46326" fill="#3eb4b8"></path><path d="M511.99904 559.87287m-58.43189 0a58.43189 58.43189 0 1 0 116.86378 0 58.43189 58.43189 0 1 0-116.86378 0Z" p-id="46327" fill="#3eb4b8"></path><path d="M736.638619 559.87287m-58.431891 0a58.43189 58.43189 0 1 0 116.863781 0 58.43189 58.43189 0 1 0-116.863781 0Z" p-id="46328" fill="#3eb4b8"></path><path d="M287.359461 744.640524m-58.43189 0a58.43189 58.43189 0 1 0 116.863781 0 58.43189 58.43189 0 1 0-116.863781 0Z" p-id="46329" fill="#3eb4b8"></path><path d="M511.99904 744.640524m-58.43189 0a58.43189 58.43189 0 1 0 116.86378 0 58.43189 58.43189 0 1 0-116.86378 0Z" p-id="46330" fill="#3eb4b8"></path><path d="M736.638619 744.640524m-58.431891 0a58.43189 58.43189 0 1 0 116.863781 0 58.43189 58.43189 0 1 0-116.863781 0Z" p-id="46331" fill="#3eb4b8"></path></svg>