<?xml version="1.0" standalone="no"?><!DOCTYPE svg PUBLIC "-//W3C//DTD SVG 1.1//EN" "http://www.w3.org/Graphics/SVG/1.1/DTD/svg11.dtd"><svg t="1550804130910" class="icon" style="" viewBox="0 0 1024 1024" version="1.1" xmlns="http://www.w3.org/2000/svg" p-id="45339" xmlns:xlink="http://www.w3.org/1999/xlink" width="64" height="64"><defs><style type="text/css"></style></defs><path d="M850.657 391.64c-6.281 0-12.564 2.333-17.393 7.015l-324.508 314.451-327.082-314.514c-9.797-9.422-25.495-9.243-35.064 0.395-9.57 9.646-9.386 25.099 0.407 34.513l344.479 331.243c9.658 9.285 25.095 9.262 34.721-0.069l341.837-331.24c9.757-9.453 9.881-24.906 0.271-34.512-4.853-4.853-11.26-7.283-17.667-7.282v0 0zM252.258 242.877c-4.294 0-8.587 1.633-11.824 4.901-6.379 6.423-6.254 16.728 0.272 23.004l256.566 246.705c6.427 6.184 16.692 6.18 23.115-0.008l254.968-245.729c6.52-6.292 6.631-16.589 0.244-23.009-6.383-6.423-16.853-6.528-23.372-0.244l-243.414 234.601-244.998-235.589c-3.218-3.094-7.386-4.633-11.552-4.634h-0.004zM252.258 242.877z" p-id="45340" fill="#2c2c2c"></path></svg>