<?xml version="1.0" encoding="iso-8859-1"?>
<!-- Generator: Adobe Illustrator 16.0.0, SVG Export Plug-In . SVG Version: 6.00 Build 0)  -->
<!DOCTYPE svg PUBLIC "-//W3C//DTD SVG 1.1//EN" "http://www.w3.org/Graphics/SVG/1.1/DTD/svg11.dtd">
<svg version="1.1" id="&#x56FE;&#x5C42;_1" xmlns="http://www.w3.org/2000/svg" xmlns:xlink="http://www.w3.org/1999/xlink" x="0px"
	 y="0px" width="226.77px" height="226.77px" viewBox="0 0 226.77 226.77" style="enable-background:new 0 0 226.77 226.77;"
	 xml:space="preserve">
<path style="fill:#EAE138;stroke:#FFFFFF;stroke-miterlimit:10;" d="M224.021,128.991c-97.711,0-135.923,0-220.859,0
	c0-60.988,49.44-110.428,110.429-110.428C174.58,18.563,224.021,68.003,224.021,128.991z"/>
<circle cx="55.127" cy="69.229" r="7.794"/>
<path style="fill:#EAE138;stroke:#FFFFFF;stroke-miterlimit:10;" d="M191.913,208.226c0,0-19.639-12.409-42.065-34.834
	c-7.871-7.874-28.022-32.354-28.022-32.354c-4.471-6.012-6.81-9.71-6.81-9.71l-1.451-2.337l-1.432,2.356
	c0,0-3.223,4.56-8.278,11.142c0,0-19.653,24.015-26.54,30.902c-17.431,17.432-42.045,34.815-42.045,34.815
	c26.51-7.325,53.592-21.416,78.312-41.771C138.306,186.8,165.395,200.896,191.913,208.226z"/>
</svg>
