<?xml version="1.0" standalone="no"?><!DOCTYPE svg PUBLIC "-//W3C//DTD SVG 1.1//EN" "http://www.w3.org/Graphics/SVG/1.1/DTD/svg11.dtd"><svg t="1550804447015" class="icon" style="" viewBox="0 0 1060 1024" version="1.1" xmlns="http://www.w3.org/2000/svg" p-id="46354" xmlns:xlink="http://www.w3.org/1999/xlink" width="66.25" height="64"><defs><style type="text/css"></style></defs><path d="M1026.813111 511.701803c0 282.22509-228.794229 511.049264-511.048016 511.049264-282.352354 0-511.054255-228.822926-511.054255-511.049264 0-282.230081 228.701901-511.054255 511.054255-511.054255 282.253787 0 511.048016 228.824174 511.048016 511.054255z m0 0" fill="#D3A66F" p-id="46355"></path><path d="M359.588625 793.249401c-22.329818 0-44.851779-7.593411-63.1915-23.145804-41.109972-34.906482-46.164344-96.759216-11.357676-137.88416 11.357676-13.412613 31.504045-15.161868 45.04517-3.728083 13.412613 11.418813 15.09574 31.567677 3.679423 45.023959-12.101296 14.271021-10.293401 35.748669 3.990097 47.864938 14.164967 12.0726 35.687533 10.327088 47.788829-3.962647 11.42006-13.456282 31.631309-15.143152 45.043922-3.709367 13.477493 11.400097 15.093245 31.547714 3.679423 45.008987-19.276733 22.806433-46.911707 34.532177-74.677688 34.532177z m250.16333 16.050219c-19.085837 0-37.74247-6.272112-51.842558-18.28108L249.233386 528.335939c-22.896267-19.481353-32.75173-53.138902-24.641778-83.80076 9.421269-35.573994 40.111824-60.747285 84.218735-69.075583 45.979686-4.507886 93.391715-27.55637 147.850668-70.864762 9.357637-7.457413 18.026552-15.893011 26.69921-24.30116 18.152568-17.496286 36.869091-35.573994 61.886422-48.28416 30.816571-15.693381 66.439224-21.400292 102.997641-16.503129 16.716483 0.999396 53.650453 8.280885 95.823452 44.121883 41.982104 35.763642 55.146428 71.040686 59.201404 88.897553 10.357033 33.922059 10.420665 69.977659-0.189648 102.919037-8.544147 26.684238-23.394093 48.050843-37.678838 68.716249-6.925899 9.966507-13.909192 19.899327-19.773311 30.397349-34.063047 60.668681-49.224915 111.151262-46.353992 154.303694-1.120421 47.787582-21.08338 82.098918-54.713481 97.08611-11.101901 4.948319-23.013549 7.35136-34.807915 7.35136zM444.686978 610.371225l154.712935 132.035013c2.991949 2.587699 11.165533 4.722488 19.149469 1.199026 14.036456-6.253397 16.595458-26.167697 16.907379-37.474218-3.679423-53.729057 13.602261-114.040901 54.463944-186.840823 6.862267-12.243533 14.908588-23.911882 22.954907-35.559021 12.22856-17.579881 23.769646-34.189063 29.384229-51.798889 6.613978-20.52317 6.428073-43.449381-0.496579-66.283263-2.183449-9.201677-9.298996-31.971927-39.117419-57.359821-29.880807-25.455269-53.465796-28.775358-59.95251-29.198323-26.513305-3.353777-49.219924 0.04866-68.438015 9.840491-16.531826 8.393177-31.06486 22.443357-46.534906 37.323248-10.171128 9.825519-20.337265 19.607369-31.319388 28.321201-65.318803 51.983546-122.088469 78.682757-178.665991 84.062774-8.238464 1.68687-27.449069 7.427469-31.383019 22.258699-2.248328 8.421873 1.247685 16.171245 4.307008 18.758944l154.027956 130.729934v-0.014972z m0 0" fill="#FFFFFF" p-id="46356"></path></svg>