<?xml version="1.0" standalone="no"?><!DOCTYPE svg PUBLIC "-//W3C//DTD SVG 1.1//EN" "http://www.w3.org/Graphics/SVG/1.1/DTD/svg11.dtd"><svg t="1550802796414" class="icon" style="" viewBox="0 0 1024 1024" version="1.1" xmlns="http://www.w3.org/2000/svg" p-id="38255" xmlns:xlink="http://www.w3.org/1999/xlink" width="64" height="64"><defs><style type="text/css"></style></defs><path d="M12.63151 511.57615c0-155.784411 0.858943-311.581454-0.821048-467.353234C11.519937 17.052538 17.090433 11.734673 44.210285 11.848356c315.787747 1.225256 631.575493 1.225256 947.36324 0 27.132483-0.101052 32.475612 5.242077 32.374559 32.37456-1.225256 315.787747-1.225256 631.575493 0 947.36324 0.101052 27.132483-5.242077 32.475612-32.374559 32.37456-315.787747-1.225256-631.575493-1.225256-947.36324 0-27.132483 0.101052-32.677716-5.216814-32.399823-32.37456C13.477821 831.582821 12.63151 671.579485 12.63151 511.57615z" fill="#FEFEFE" p-id="38256"></path><path d="M534.274973 88.711094c30.833516 1.048415 64.395437 17.494641 89.620562 47.898685 26.046173 31.401934 56.159693 43.629235 98.096306 42.896608 98.336304-1.730517 148.041296 48.517629 147.447615 146.74025-0.227367 38.23558 8.690479 66.530162 37.288217 94.2058 72.681708 70.35751 72.820654 136.44557 1.237888 206.563081-27.852479 27.284061-39.06926 54.643912-38.677683 93.624752 1.035784 102.024705-47.709213 149.317078-151.931801 148.559187-36.568221-0.265262-62.450185 10.446259-88.155307 36.593484-73.300652 74.576434-137.026619 74.311173-210.946215-1.073678-25.93249-26.450382-52.408134-35.72191-88.610042-35.46928-102.807859 0.694733-151.186542-47.532372-150.719176-150.112863 0.16421-36.012435-8.425217-62.753341-34.964019-88.799515-75.448008-74.045911-75.776428-137.87293-1.25052-211.085161 26.235646-25.780912 36.492432-51.78919 36.277697-88.243728-0.631575-104.197325 46.509219-152.626534 148.976027-151.603381 39.145049 0.391577 68.260679-9.221002 93.245806-39.359785 26.374593-31.831405 60.290197-52.142873 113.064645-51.334456z" fill="#FD7510" p-id="38257"></path><path d="M656.497462 557.84537c7.199961-30.252466 15.031497-60.378617 21.347252-90.807924 3.410508-16.446226 9.511527-25.957753 28.521949-25.667228 18.442004 0.277893 25.490387 8.147324 28.19353 25.616702 4.143135 26.816695 10.635731 53.279709 16.926224 83.784805 27.599849-23.014611 17.242011-55.907063 26.917747-81.574291 6.618911-17.557799 10.345207-31.629301 32.7914-26.85459 25.667228 5.469444 11.368359 23.75987 8.86732 34.686126-10.282049 44.879755-24.075658 88.938461-34.471391 133.792953-4.623133 19.919891-14.096765 29.02721-34.142971 28.269319-19.162-0.732628-23.785133-14.943076-27.094589-29.469313-6.922067-30.378781-12.997824-60.959667-22.016721-103.805748-8.86732 43.161869-15.486231 73.325915-21.132516 103.65417-3.562086 19.111474-12.530458 30.580885-33.46087 29.53247-17.368326-0.858943-25.288283-10.092576-29.02721-26.892484-10.471522-47.001848-22.597771-93.637383-33.599816-140.525548-2.67788-11.431516-8.95574-25.995647 10.572574-28.913526 14.80413-2.210514 30.429307-2.551565 34.21876 17.532536 6.214703 32.892452 12.025197 65.860692 17.999902 98.791039l8.589426-1.149468z" fill="#FEFAF8" p-id="38258"></path><path d="M366.831678 442.759684c16.837803-2.046305 29.317734 1.995779 29.406155 22.016722 0.214736 48.252368 0.303156 96.504735 0.239999 144.757103-0.012632 13.023087-1.743148 25.856701-17.860955 28.547212-15.72623 2.627354-28.926158-1.604202-37.262954-16.597804-17.999902-32.387191-36.189276-64.660699-64.711225-95.607898v83.140598c0 13.187296-1.402098 26.248278-17.873587 28.067215-21.903038 2.437881-22.572508-13.932555-22.711455-28.875632a6780.013448 6780.013448 0 0 1-0.012631-132.176119c0.151578-13.882029-3.334719-31.161935 18.126217-33.726131 17.15359-2.046305 33.347186-1.604202 42.947133 17.077801 14.336764 27.903005 29.519839 55.376539 44.3366 83.039546 20.955675 11.279938 17.166222-5.848389 18.593582-16.420963 3.751558-27.612481-7.301013-56.437586 6.783121-83.24165z" fill="#FEFBF8" p-id="38259"></path><path d="M433.702891 537.773901V512.58667c0.113684-65.279643 46.294484-95.153164 108.390987-70.622771 8.753636 3.461034 14.324132 7.705221 13.869397 17.330431-0.41684 8.943109-4.282082 15.940965-13.629399 18.214638-4.029452 0.985258-8.564164 0.101052-12.454669 1.351571-16.951486 5.482075-48.530261-14.235712-47.747107 21.258831 0.66947 29.999836 28.761948 14.197817 44.728177 17.557799 12.442037 2.627354 26.387224 1.692622 26.412487 19.136737 0.025263 17.469378-13.894661 16.64833-26.387224 19.124106-17.267274 3.423139-47.570266-13.225191-45.523962 23.75987 1.907358 34.38297 30.808253 18.606214 48.669208 22.206195 12.037829 2.42525 27.069326-0.075789 27.561954 17.671482 0.454734 16.585172-12.745193 17.949376-25.692491 20.349362-85.894267 15.915702-98.197358 3.296824-98.197358-102.15102z" fill="#FEF6F0" p-id="38260"></path><path d="M366.831678 442.759684v125.127737c-20.324099-1.301046-22.67356-13.528347-25.364072-25.452493 30.606148-27.587218-11.279938-73.61644 25.364072-99.675244z" fill="#FEC59B" p-id="38261"></path></svg>