<?xml version="1.0" standalone="no"?><!DOCTYPE svg PUBLIC "-//W3C//DTD SVG 1.1//EN" "http://www.w3.org/Graphics/SVG/1.1/DTD/svg11.dtd"><svg t="1551081151855" class="icon" style="" viewBox="0 0 1057 1024" version="1.1" xmlns="http://www.w3.org/2000/svg" p-id="30920" xmlns:xlink="http://www.w3.org/1999/xlink" width="66.0625" height="64"><defs><style type="text/css"></style></defs><path d="M251.424 474.688a373.136 373.136 0 0 0 559.744 323.168A373.152 373.152 0 0 0 997.76 474.688c0-206.096-167.072-373.168-373.168-373.168S251.424 268.608 251.424 474.688z m0 0" fill="#FFEC43" p-id="30921"></path><path d="M624.592 856.352c-210.448 0-381.648-171.216-381.648-381.664 0-210.448 171.216-381.648 381.648-381.648 210.448 0 381.664 171.2 381.664 381.648 0 210.448-171.216 381.664-381.664 381.664z m0-746.336c-201.088 0-364.672 163.6-364.672 364.672 0 201.088 163.584 364.688 364.672 364.688 201.088 0 364.688-163.6 364.688-364.688-0.016-201.072-163.6-364.672-364.688-364.672z m0 0" fill="#6B0204" p-id="30922"></path><path d="M197.2 799.12c4.608 6 2.352 15.472-5.04 21.152l-70.64 54.176c-7.408 5.664-17.136 5.408-21.744-0.608-4.608-6-2.352-15.488 5.04-21.152l70.624-54.176c7.408-5.68 17.152-5.408 21.76 0.608z m16.24 88.624c4.608 6.016 2.352 15.488-5.056 21.152L137.76 963.072c-7.392 5.68-17.136 5.408-21.744-0.608-4.608-6.016-2.352-15.488 5.04-21.152l70.64-54.176c7.408-5.68 17.136-5.392 21.744 0.608z m-97.632-127.296c4.608 6.016 2.352 15.488-5.04 21.152l-70.64 54.176c-7.392 5.68-17.136 5.408-21.744-0.608-4.608-6.016-2.352-15.488 5.04-21.152l70.624-54.176c18.928-14.512 23.52 2.896 21.76 0.608z m0 0" fill="#6C0000" p-id="30923"></path><path d="M340.112 454.256s-102-62.064-285.952 93.776l177.312 78.144 108.64-171.92z m0 0" fill="#BED5E9" p-id="30924"></path><path d="M234.736 636.896L38.32 550.32l10.352-8.768c105.344-89.248 184.864-107.984 233.024-107.984 40.272 0 61.904 12.896 62.816 13.44l7.376 4.496-117.152 185.392zM70.128 545.792l158.064 69.664 99.52-157.488c-8.624-3.2-24.16-7.44-46.016-7.44-43.728 0.016-115.424 16.832-211.568 95.264z m0 0" fill="#6C0000" p-id="30925"></path><path d="M559.376 740.16S592.88 854.768 394.656 992l-29.504-191.504 194.224-60.336z m0 0" fill="#BED5E9" p-id="30926"></path><path d="M388.336 1006.704l-32.672-212.16 209.44-65.04 2.416 8.288c1.44 4.928 32.912 122.08-168.032 261.2l-11.152 7.712z m-13.664-200.272l26.288 170.736c149.264-107.472 154.24-198.368 151.632-226l-177.92 55.264z m0 0" fill="#6C0000" p-id="30927"></path><path d="M605.04 704.56c163.712-125.552 247.456-291.168 187.056-369.92-60.4-78.752-242.064-40.816-405.776 84.736-106.624 81.776-179.28 180.512-200.336 261.216l0.048 0.016a4.352 4.352 0 0 0-0.448 1.616c-0.192 2.752 101.472 35.392 108.624 142.352a6.432 6.432 0 0 0 1.328 3.424 6.16 6.16 0 0 0 3.904 2.4 4.144 4.144 0 0 0 1.472-0.096c83.392 0.56 197.552-44.016 304.128-125.744z m0 0" fill="#BED5E9" p-id="30928"></path><path d="M299.872 838.928l-1.744-0.144a14.64 14.64 0 0 1-9.328-5.648 14.496 14.496 0 0 1-3.04-8.048c-3.856-57.568-36.944-102.032-98.368-132.112-6.208-3.04-10.704-5.232-10.272-11.328a12.88 12.88 0 0 1 0.672-3.264c22.464-85.984 98.464-185.312 203.36-265.744 104.128-79.856 219.184-127.552 307.792-127.552 49.632 0 87.632 15.36 109.888 44.384 63.136 82.336-21.472 253.632-188.624 381.84-104.096 79.824-219.152 127.504-307.744 127.504l-2.592 0.112z m-104.384-160.896c66.096 32.56 102.096 80.928 107.056 143.792 84.976-0.032 196.112-46.368 297.328-124 159.728-122.512 242.928-283.104 185.488-358.016-18.928-24.688-52.272-37.744-96.416-37.744-84.992 0-196.176 46.368-297.456 124.064-100.08 76.752-172.96 170.528-196 251.904z m0 0" fill="#6C0000" p-id="30929"></path><path d="M520.96 753.824l-206.16-271.68a646 646 0 0 0-32.336 36.72l194.64 256.512c14.88-6.624 29.504-13.808 43.856-21.552z m0 0" fill="#FFFFFF" p-id="30930"></path><path d="M474.4 785.872L271.664 518.688l4.208-5.184c10.448-12.8 21.376-25.216 32.752-37.216l6.88-7.248 218.208 287.568-8.736 4.704c-14.528 7.824-29.344 15.104-44.432 21.808l-6.144 2.752zM293.28 519.088l186.496 245.776a644.944 644.944 0 0 0 28.368-13.856L314.112 495.296c-7.136 7.76-14.08 15.696-20.832 23.792z m0 0" fill="#6C0000" p-id="30931"></path><path d="M430.208 803.712L245.232 562.512a162.192 162.192 0 0 0-21.792 36.416l164.72 217.28c11.76-1.568 31.12-7.712 42.048-12.496z m0 0" fill="#FFFFFF" p-id="30932"></path><path d="M384.384 825.264L213.712 600.16l1.904-4.512c5.472-12.992 13.84-26.992 22.976-38.416l6.768-8.48 198.176 258.4-9.936 4.336c-11.44 5.008-31.648 11.44-44.336 13.12l-4.88 0.656z m-151.136-227.456l158.576 209.152a195.248 195.248 0 0 0 24.768-7.056L245.36 576.64c-4.576 6.736-8.64 13.808-12.112 21.168z m0 0" fill="#6C0000" p-id="30933"></path><path d="M501.472 498.256a76.976 76.976 0 1 0 153.968 0.016 76.976 76.976 0 0 0-153.968-0.016z m0 0" fill="#ECF3FE" p-id="30934"></path><path d="M578.464 583.712a85.568 85.568 0 0 1-85.488-85.456 85.584 85.584 0 0 1 85.488-85.472 85.568 85.568 0 0 1 85.472 85.472 85.552 85.552 0 0 1-85.472 85.456z m0-153.968a68.592 68.592 0 0 0-68.496 68.512 68.592 68.592 0 0 0 68.496 68.496 68.56 68.56 0 0 0 68.496-68.496 68.576 68.576 0 0 0-68.496-68.512z m0 0" fill="#6C0000" p-id="30935"></path><path d="M601.584 437.728c21.12 10.816 30.064 36.128 27.248 61.328-6.144 55.008-71.216 60.944-77.76 58.752a65.328 65.328 0 0 0 50.512-120.08z m0 0" fill="#BED5E9" p-id="30936"></path><path d="M869.808 102.752a41.536 41.536 0 1 0 83.056 0 41.536 41.536 0 0 0-83.056 0z m0 0" fill="#FFC700" p-id="30937"></path><path d="M911.344 152.768a50.08 50.08 0 0 1-50.032-50.016 50.08 50.08 0 0 1 50.032-50.016 50.08 50.08 0 0 1 50.032 50.016 50.08 50.08 0 0 1-50.032 50.016z m0-83.072a33.104 33.104 0 0 0-33.056 33.056 33.104 33.104 0 0 0 33.056 33.056 33.072 33.072 0 0 0 0-66.112z m0 0M182.976 188.4a31.152 31.152 0 1 0 62.32 0 31.152 31.152 0 0 0-62.32 0z m0 0" fill="#6C0000" p-id="30938"></path></svg>