<?xml version="1.0" encoding="iso-8859-1"?>
<!-- Generator: Adobe Illustrator 16.0.0, SVG Export Plug-In . SVG Version: 6.00 Build 0)  -->
<!DOCTYPE svg PUBLIC "-//W3C//DTD SVG 1.1//EN" "http://www.w3.org/Graphics/SVG/1.1/DTD/svg11.dtd">
<svg version="1.1" id="&#x56FE;&#x5C42;_1" xmlns="http://www.w3.org/2000/svg" xmlns:xlink="http://www.w3.org/1999/xlink" x="0px"
	 y="0px" width="283.46px" height="283.46px" viewBox="0 0 283.46 283.46" style="enable-background:new 0 0 283.46 283.46;"
	 xml:space="preserve">
<path style="fill:#FFFFFF;stroke:#FFFFFF;stroke-miterlimit:10;" d="M127.552,87.028c-41.552,0-57.802,0-93.922,0
	c0-25.936,21.025-46.961,46.961-46.961S127.552,61.092,127.552,87.028z"/>
<circle cx="55.729" cy="61.613" r="3.314"/>
<path style="fill:#FFFFFF;stroke:#FFFFFF;stroke-miterlimit:10;" d="M113.898,120.723c0,0-8.352-5.278-17.888-14.814
	c-3.349-3.349-11.917-13.759-11.917-13.759c-1.901-2.556-2.896-4.129-2.896-4.129l-0.617-0.993l-0.609,1.001
	c0,0-1.371,1.94-3.521,4.738c0,0-8.357,10.214-11.286,13.142c-7.413,7.414-17.88,14.806-17.88,14.806
	c11.273-3.116,22.791-9.108,33.303-17.765C91.102,111.611,102.622,117.606,113.898,120.723z"/>
</svg>
