<?xml version="1.0" standalone="no"?><!DOCTYPE svg PUBLIC "-//W3C//DTD SVG 1.1//EN" "http://www.w3.org/Graphics/SVG/1.1/DTD/svg11.dtd"><svg t="1550567286741" class="icon" style="" viewBox="0 0 1024 1024" version="1.1" xmlns="http://www.w3.org/2000/svg" p-id="1908" xmlns:xlink="http://www.w3.org/1999/xlink" width="64" height="64"><defs><style type="text/css"></style></defs><path d="M838.6 331.6H660.7c-6.3-87.4-53.1-131.1-140.4-131.1-90.6 6.3-137.4 43.8-140.5 112.4-6.3 65.6 46.8 106.1 159.2 121.7 6.2 3.1 12.4 6.3 18.7 9.4C763.7 484.6 865 562.6 862 678c-6.3 181-129.6 274.6-369.8 280.9-227.9-3.1-338.7-98.3-332.4-285.6H347c0 103 48.3 156.1 145.1 159.2 112.4-3.1 170.1-40.5 173.2-112.4 0-56.2-54.6-96.7-163.9-121.7-12.5-3.1-23.4-6.2-32.8-9.4C275.2 548.5 180 469 183.1 350.3c9.4-174.7 129.5-269.9 360.5-285.6 187.3 12.6 285.6 101.6 295 266.9z m0 0" p-id="1909" fill="#f4ea2a"></path></svg>